<?xml version="1.0" encoding="UTF-8"?>
<svg id="Layer_1" xmlns="http://www.w3.org/2000/svg" viewBox="0 0 414.09 134.81">
  <defs>
    <style>
      .cls-1 {
        fill: #ffecd4;
      }

      .cls-2 {
        fill: #ff7e1d;
      }
    </style>
  </defs>
  <g>
    <circle class="cls-1" cx="67.4" cy="67.4" r="67.4"/>
    <path class="cls-2" d="M61.29,1.71v10.84l-7.09.03-.57-.03h-.05c-5.18,0-13.03,3.42-13.55,12.88v.12c-.29,7.6,4.87,14.58,11.49,15.55,3.3.49,23.02.25,33.15.1.89-.01,1.66.65,1.73,1.54.01.16.02.34.02.53v.02c0,.93-.78,1.69-1.71,1.69H23.82c-.75,0-3.4.14-6.17,1.73-2.3,1.32-6.19,4.56-6.37,11.45-.27,10.51,4.61,13.75,9.93,15.7,1.31.48,4.78,1.75,87.75.39.18,0,.68.09,1.04.3.27.19.45.42.55.73.3.91-.22,1.53-.4,1.67-.1.07-.51.18-.83.18H38.38c-1.12.02-5.46.21-9.07,3.68-1.93,1.85-4.24,5.27-4.34,11.04-.1,5.85,2.17,9.31,4.09,11.18,3.52,3.43,7.82,3.65,9.08,3.62h46.42c.47.12.76.4.76,1.66,0,.77-.06,1.28-.13,1.6-.21.03-.45.06-.64.08l-.2.02c-1.19.14-6.87.09-11.45-.04-1.22-.05-3.85.13-6.16,2.2-1.43,1.28-3.13,3.65-3.13,7.71v13.34c0,.67.39,1.24.95,1.52.95.04,1.89.07,2.85.07,2.97,0,5.88-.21,8.75-.58.21-.28.34-.63.34-1.01v-8.54c0-.95.78-1.72,1.73-1.71,2.96.03,6.13.02,7.63-.16l.18-.02c5.55-.64,12.17-3.67,12.17-14.48,0-9.85-7.5-14.08-12.54-14.52l-.28-.02-46.57.11-.39-.05-.42-.22-.37-.36c-.08-.22-.31-.29-.29-1.23.02-1.35.66-1.81.92-1.91.03-.03.15-.07.24-.08h71.22c3.87,0,7.52-1.49,10.03-4.1,1.85-1.93,4.02-5.44,3.79-11.22-.4-10-9.08-13.46-14.79-13.33-29.23.48-77.12.95-83.55.22-.41-.03-.64-.1-.9-.24-.3-.22-1.39-.92-.87-2.41.15-.43.66-1.06,1.07-1.06h62.53l.65-.03c4.68-.48,11.65-4.74,11.65-14.55,0-5.14-2.07-9.5-5.84-12.28-2.68-1.98-5.33-2.51-6.07-2.62l-.54-.08h-.54c-13.83.23-29.37.32-32.57.11-.55-.11-1.5-.53-1.35-1.5.03-.23.05-.49.07-.56.2-.64.77-.85,1.14-.88,1.05.06,3.34.11,7.96-.02,8.94-.25,12.44-7.32,12.62-12.01V1.71c0-.6-.31-1.13-.78-1.43C71.42.11,69.42,0,67.4,0,65.64,0,63.91.09,62.18.22c-.53.29-.89.85-.89,1.49ZM38.24,90h.22c-.11,0-.19,0-.22,0Z"/>
  </g>
  <g>
    <path d="M170.9,100.74c-4.11,0-7.28-.84-9.52-2.52-2.24-1.68-3.8-4.01-4.68-7-.88-2.99-1.32-6.37-1.32-10.16v-27.52c0-3.79.44-7.12,1.32-10,.88-2.88,2.47-5.13,4.76-6.76,2.29-1.63,5.52-2.44,9.68-2.44,3.79,0,6.76.75,8.92,2.24,2.16,1.49,3.71,3.63,4.64,6.4.93,2.77,1.4,6.05,1.4,9.84v2.24h-4.16v-2.48c0-3.2-.32-5.88-.96-8.04-.64-2.16-1.73-3.8-3.28-4.92-1.55-1.12-3.73-1.68-6.56-1.68-3.15,0-5.55.65-7.2,1.96-1.65,1.31-2.76,3.12-3.32,5.44s-.84,5-.84,8.04v28.24c0,3.15.32,5.88.96,8.2.64,2.32,1.79,4.12,3.44,5.4,1.65,1.28,4,1.92,7.04,1.92,2.88,0,5.11-.61,6.68-1.84,1.57-1.23,2.67-2.99,3.28-5.28.61-2.29.92-5.01.92-8.16v-9.52h-10.32v-3.36h14.4v30.88h-2.8l-.64-7.28c-.8,2.51-2.12,4.49-3.96,5.96-1.84,1.47-4.47,2.2-7.88,2.2Z"/>
    <path d="M205.38,100.58c-1.39,0-2.63-.33-3.72-1-1.09-.67-1.96-1.73-2.6-3.2-.64-1.47-.96-3.43-.96-5.88v-36.88h4.24v36.4c0,2.83.44,4.75,1.32,5.76.88,1.01,2.07,1.52,3.56,1.52,1.65,0,3.31-.52,4.96-1.56,1.65-1.04,3.17-2.39,4.56-4.04v-38.08h4.16v46.24h-4.16v-5.44c-1.49,1.87-3.21,3.36-5.16,4.48-1.95,1.12-4.01,1.68-6.2,1.68Z"/>
    <path d="M242.65,100.34c-2.13,0-3.73-.43-4.8-1.28-1.07-.85-1.76-2-2.08-3.44s-.48-3.07-.48-4.88v-34.32h-6.08v-2.8h6.08v-14.8h4.24v14.8h7.84v2.8h-7.84v33.76c0,2.51.24,4.27.72,5.28.48,1.01,1.57,1.52,3.28,1.52.53,0,1.11-.04,1.72-.12.61-.08,1.19-.17,1.72-.28v3.28c-.64.16-1.36.28-2.16.36s-1.52.12-2.16.12Z"/>
    <path d="M270.33,100.66c-3.41,0-6.23-.69-8.44-2.08-2.21-1.39-3.89-3.33-5.04-5.84-1.15-2.51-1.85-5.47-2.12-8.88l3.76-1.2c.37,2.83.95,5.33,1.72,7.52.77,2.19,1.96,3.88,3.56,5.08,1.6,1.2,3.81,1.8,6.64,1.8,3.2,0,5.72-.8,7.56-2.4,1.84-1.6,2.76-4.27,2.76-8,0-2.83-.73-5.37-2.2-7.64-1.47-2.27-3.53-4.71-6.2-7.32l-11.84-11.76c-1.97-2.03-3.41-4.05-4.32-6.08-.91-2.03-1.36-4.11-1.36-6.24,0-4.27,1.32-7.55,3.96-9.84,2.64-2.29,6.07-3.44,10.28-3.44,2.19,0,4.16.28,5.92.84,1.76.56,3.29,1.47,4.6,2.72,1.31,1.25,2.33,2.92,3.08,5,.75,2.08,1.23,4.64,1.44,7.68l-3.68.88c-.21-3.04-.72-5.57-1.52-7.6-.8-2.03-1.97-3.53-3.52-4.52-1.55-.99-3.63-1.48-6.24-1.48-2.93,0-5.39.75-7.36,2.24-1.97,1.49-2.96,3.89-2.96,7.2,0,1.65.33,3.25,1,4.8.67,1.55,1.91,3.23,3.72,5.04l11.68,11.52c2.61,2.56,4.87,5.29,6.76,8.2,1.89,2.91,2.84,6.09,2.84,9.56,0,3.25-.61,5.93-1.84,8.04-1.23,2.11-2.93,3.67-5.12,4.68-2.19,1.01-4.69,1.52-7.52,1.52Z"/>
    <path d="M305.37,100.58c-2.45,0-4.56-.49-6.32-1.48-1.76-.99-3.11-2.77-4.04-5.36-.93-2.59-1.4-6.25-1.4-11v-12.32c0-4.85.48-8.53,1.44-11.04.96-2.51,2.33-4.21,4.12-5.12,1.79-.91,3.88-1.36,6.28-1.36,2.88,0,5.15.61,6.8,1.84,1.65,1.23,2.83,3.19,3.52,5.88.69,2.69,1.04,6.25,1.04,10.68v4.4h-18.96v7.36c0,3.68.25,6.56.76,8.64s1.32,3.55,2.44,4.4c1.12.85,2.56,1.28,4.32,1.28,1.12,0,2.24-.19,3.36-.56,1.12-.37,2.05-1.25,2.8-2.64.75-1.39,1.12-3.55,1.12-6.48v-3.44h4.16v3.04c0,3.95-.81,7.15-2.44,9.6-1.63,2.45-4.63,3.68-9,3.68ZM297.85,73.14h14.8v-3.6c0-2.77-.15-5.16-.44-7.16-.29-2-.95-3.55-1.96-4.64-1.01-1.09-2.61-1.64-4.8-1.64-1.71,0-3.13.36-4.28,1.08-1.15.72-1.99,2.05-2.52,4-.53,1.95-.8,4.76-.8,8.44v3.52Z"/>
    <path d="M327.21,99.86v-46.24h4.24v4.96c1.44-1.71,3.09-3.08,4.96-4.12,1.87-1.04,3.87-1.56,6-1.56,1.39,0,2.63.33,3.72,1,1.09.67,1.96,1.73,2.6,3.2.64,1.47.96,3.43.96,5.88v36.88h-4.24v-36.4c0-2.83-.44-4.75-1.32-5.76-.88-1.01-2.07-1.52-3.56-1.52s-3.11.47-4.68,1.4c-1.57.93-3.05,2.17-4.44,3.72v38.56h-4.24Z"/>
    <path d="M371.37,100.58c-3.63,0-6.51-1.19-8.64-3.56-2.13-2.37-3.36-5.59-3.68-9.64l3.6-1.04c.27,3.89,1.16,6.71,2.68,8.44,1.52,1.73,3.59,2.6,6.2,2.6,2.35,0,4.16-.65,5.44-1.96,1.28-1.31,1.92-3.16,1.92-5.56,0-1.65-.55-3.37-1.64-5.16-1.09-1.79-2.81-3.67-5.16-5.64l-5.36-4.56c-2.29-1.97-3.97-3.85-5.04-5.64-1.07-1.79-1.6-3.83-1.6-6.12,0-2.13.44-3.92,1.32-5.36s2.11-2.55,3.68-3.32c1.57-.77,3.4-1.16,5.48-1.16,3.47,0,6.05,1.09,7.76,3.28,1.71,2.19,2.61,5.12,2.72,8.8l-3.12.96c-.05-2.4-.39-4.32-1-5.76s-1.44-2.48-2.48-3.12c-1.04-.64-2.25-.96-3.64-.96-2.03,0-3.67.52-4.92,1.56s-1.88,2.57-1.88,4.6c0,1.71.33,3.19,1,4.44.67,1.25,1.91,2.71,3.72,4.36l5.52,4.88c1.39,1.17,2.72,2.43,4,3.76,1.28,1.33,2.33,2.81,3.16,4.44.83,1.63,1.24,3.56,1.24,5.8s-.47,4.15-1.4,5.72c-.93,1.57-2.24,2.79-3.92,3.64s-3.67,1.28-5.96,1.28Z"/>
    <path d="M402.65,100.58c-2.45,0-4.56-.49-6.32-1.48-1.76-.99-3.11-2.77-4.04-5.36-.93-2.59-1.4-6.25-1.4-11v-12.32c0-4.85.48-8.53,1.44-11.04.96-2.51,2.33-4.21,4.12-5.12,1.79-.91,3.88-1.36,6.28-1.36,2.88,0,5.15.61,6.8,1.84,1.65,1.23,2.83,3.19,3.52,5.88.69,2.69,1.04,6.25,1.04,10.68v4.4h-18.96v7.36c0,3.68.25,6.56.76,8.64s1.32,3.55,2.44,4.4c1.12.85,2.56,1.28,4.32,1.28,1.12,0,2.24-.19,3.36-.56,1.12-.37,2.05-1.25,2.8-2.64.75-1.39,1.12-3.55,1.12-6.48v-3.44h4.16v3.04c0,3.95-.81,7.15-2.44,9.6-1.63,2.45-4.63,3.68-9,3.68ZM395.13,73.14h14.8v-3.6c0-2.77-.15-5.16-.44-7.16-.29-2-.95-3.55-1.96-4.64-1.01-1.09-2.61-1.64-4.8-1.64-1.71,0-3.13.36-4.28,1.08-1.15.72-1.99,2.05-2.52,4-.53,1.95-.8,4.76-.8,8.44v3.52Z"/>
  </g>
</svg>